<?xml version="1.0" encoding="UTF-8"?><svg id="Ebene_1_Kopie_Kopie" xmlns="http://www.w3.org/2000/svg" viewBox="0 0 270.16 48.19"><defs><style>.cls-1{fill:#ec6225;}.cls-2{fill:#5f6a77;}</style></defs><path class="cls-2" d="M66.56,18.44s-2.99,0-4.2,0c-1.33,0-2.14.48-2.14,1.72,0,3.24,7.08,1.67,7.08,7.4,0,3.67-2.88,5.1-6.02,5.1-1.57,0-4.59,0-4.59,0v-2.9s3.19,0,4.62,0,2.49-.51,2.49-1.91c0-3.31-7.08-1.76-7.08-7.45,0-3.58,2.78-4.84,5.8-4.84,2.68,0,4.04,0,4.04,0v2.88Z"/><path class="cls-2" d="M73.3,15.6v17.01h-3.46V15.6h3.46Z"/><path class="cls-2" d="M76.81,15.6h10.35v2.83h-6.87v3.94h5.97v3h-5.97v4.4h6.94v2.83h-10.42V15.6Z"/><path class="cls-2" d="M96.15,32.61h-5.85V15.6h5.25c4.21,0,6.04,1.43,6.04,4.25,0,1.51-.85,3.14-2.68,3.57v.05c2.01.18,3.7,1.76,3.7,4.02,0,3.79-2.61,5.13-6.46,5.13ZM95.59,18.49h-2.04v3.77h2.25c1.51,0,2.32-.76,2.32-1.94,0-1.28-.88-1.83-2.52-1.83ZM96.37,25.23h-2.83v4.47h2.83c1.7,0,2.73-.83,2.73-2.24,0-1.56-1.15-2.24-2.73-2.24Z"/><path class="cls-2" d="M111.45,32.61h-3.46v-14.17h-4.74v-2.83h12.91v2.83h-4.71v14.17Z"/><path class="cls-2" d="M118.06,15.6h10.35v2.83h-6.87v3.94h5.97v3h-5.97v4.4h6.94v2.83h-10.42V15.6Z"/><path class="cls-2" d="M139.57,18.46c-3.55,0-5.61,2.15-5.61,5.61s1.86,5.66,5.83,5.66c1.23,0,2.37-.17,3.82-.63v2.97c-1.16.31-2.61.58-4.52.58-5.92,0-8.75-3.53-8.75-8.49,0-6.07,4.18-8.61,8.66-8.61,1.64,0,3.07.22,4.3.58v3c-1.14-.39-2.35-.68-3.72-.68Z"/><path class="cls-2" d="M156.21,25.43h-6.53v7.19h-3.48V15.6h3.48v6.85h6.53v-6.85h3.48v17.01h-3.48v-7.19Z"/><path class="cls-2" d="M166.65,21.56h-.05v11.05h-3.41V15.6h3.77l6.46,10.43h.05v-10.43h3.41v17.01h-3.41l-6.82-11.05Z"/><path class="cls-2" d="M183.84,15.6v17.01h-3.46V15.6h3.46Z"/><path class="cls-2" d="M190.81,27.59v5.02h-3.46V15.6h3.46v7.66l6.21-7.66h3.89l-5.85,7.13,6.36,9.87h-3.99l-4.67-7.24-1.96,2.21Z"/><path class="cls-2" d="M216.66,32.61h-3.46v-14.17h-4.74v-2.83h12.91v2.83h-4.71v14.17Z"/><path class="cls-2" d="M223.35,15.6h10.35v2.83h-6.87v3.94h5.97v3h-5.97v4.4h6.94v2.83h-10.42V15.6Z"/><path class="cls-2" d="M252.84,32.61h-3.34v-5.53l.22-5.65h-.07l-3.82,6.63h-2.01l-3.77-6.53h-.07l.22,5.45v5.63h-3.34V15.6h3.58l4.47,8.04,4.5-8.04h3.43v17.01Z"/><path class="cls-2" d="M270.16,32.61h-3.63l-1.14-3.62h-5.9l-1.11,3.62h-3.46l5.61-17.01h4.01l5.61,17.01ZM262.39,19.1l-2.13,6.83h4.35l-2.18-6.83h-.05Z"/><path class="cls-1" d="M47.45,22.32L25.87.73c-.98-.98-2.57-.98-3.54,0L.73,22.32c-.98.98-.98,2.57,0,3.54l21.59,21.59c.98.98,2.57.98,3.54,0l21.59-21.59c.98-.98.98-2.57,0-3.54ZM25.43,31.47c-1.26,2.26-3.6,3.83-6.33,3.99h-6.86v-4.58h6.41c1.52,0,2.75-1.23,2.75-2.75,0-.96-.5-1.81-1.24-2.3-2.42-1.36-7.91-1.82-7.91-7.77,0-4.14,3.24-7.54,7.32-7.78h6.86v4.33h-6.41c-1.65,0-2.99,1.34-2.99,2.99,0,1.01.51,1.95,1.4,2.53.37.14.82.27,1.29.41,2.72.79,6.45,1.88,6.45,7.13,0,1.4-.27,2.68-.74,3.79ZM38.07,19.66h-6.62v18.09s-4.33,0-4.33,0v-18.09h-6.86v-4.09h17.81v4.09Z"/></svg>